# xmcd
# 
# Track frame offsets:
#     150
#     26400
#     48100
#     79940
#     109074
#     125050
#     134113
# 
# Disc length: 2005
# 
# Revision: 0
# Processed by: cddbd v1.5.2PL0 Copyright (c) Steve Scherf et al.
# Submitted via: fre:ac v1.0.17
# 
DISCID=5d07d307
DTITLE=Martin Watkinson - Levity
DYEAR=2103
DGENRE=
TTITLE0=Sunflower
TTITLE1=Higher
TTITLE2=Ginko
TTITLE3=Free
TTITLE4=Sunny Day
TTITLE5=Click
TTITLE6=Catharsis
EXTD=
EXTT0=
EXTT1=
EXTT2=
EXTT3=
EXTT4=
EXTT5=
EXTT6=
PLAYORDER=
